<?xml version="1.0" encoding="UTF-8" standalone="no"?>
<!-- Created with Inkscape (http://www.inkscape.org/) -->

<svg
   width="512mm"
   height="512mm"
   viewBox="0 0 512 512"
   version="1.1"
   id="svg5"
   inkscape:version="1.1.1 (c3084ef, 2021-09-22)"
   sodipodi:docname="logo.svg"
   xmlns:inkscape="http://www.inkscape.org/namespaces/inkscape"
   xmlns:sodipodi="http://sodipodi.sourceforge.net/DTD/sodipodi-0.dtd"
   xmlns="http://www.w3.org/2000/svg"
   xmlns:svg="http://www.w3.org/2000/svg">
  <sodipodi:namedview
     id="namedview7"
     pagecolor="#ffffff"
     bordercolor="#666666"
     borderopacity="1.0"
     inkscape:pageshadow="2"
     inkscape:pageopacity="0.0"
     inkscape:pagecheckerboard="0"
     inkscape:document-units="mm"
     showgrid="false"
     inkscape:zoom="0.34522221"
     inkscape:cx="1079.0152"
     inkscape:cy="1273.0931"
     inkscape:window-width="2560"
     inkscape:window-height="1387"
     inkscape:window-x="0"
     inkscape:window-y="25"
     inkscape:window-maximized="0"
     inkscape:current-layer="layer2" />
  <defs
     id="defs2" />
  <g
     inkscape:label="Circle"
     inkscape:groupmode="layer"
     id="layer1">
    <ellipse
       style="fill:#0d6efd;stroke:#000000;stroke-width:1.94847;stroke-dasharray:1.94847, 1.94847;stroke-opacity:0"
       id="path866"
       cx="255.59929"
       cy="256.7489"
       rx="251.02654"
       ry="254.47534" />
  </g>
  <g
     inkscape:groupmode="layer"
     id="layer2"
     inkscape:label="Drawing">
    <g
       id="g1659"
       transform="matrix(1.2042302,0,0,1.3702729,-51.901029,-92.346794)">
      <path
         style="fill:#ffffff;stroke:#000000;stroke-width:5.04003;stroke-dasharray:5.04003, 5.04003;stroke-opacity:0"
         d="m 129.07542,372.57651 c -4.22866,-1.79118 -7.65804,-4.88257 -9.66888,-8.71598 l -1.6422,-3.13061 -0.15609,-55.3304 -0.1561,-55.33042 -4.69899,-0.51779 c -7.90627,-0.87119 -13.002177,-4.00619 -16.579114,-10.19945 l -1.611892,-2.7909 -0.17557,-24.20309 c -0.09656,-13.3117 -0.01508,-25.35494 0.181065,-26.76274 0.480627,-3.44955 4.354689,-8.84503 8.033161,-11.18793 1.6403,-1.04474 4.67903,-2.27134 6.75272,-2.72579 2.64355,-0.57932 46.67593,-0.76073 147.33349,-0.607 l 143.5629,0.21925 3.22127,1.72312 c 4.20598,2.24988 6.81984,4.85682 8.82498,8.80161 l 1.62806,3.20294 -0.16656,25.76967 -0.16655,25.76967 -1.61188,2.79104 c -3.57679,6.19333 -8.67274,9.32839 -16.57906,10.1996 l -4.69896,0.51779 -0.15609,55.33042 -0.15609,55.3304 -1.66175,3.16791 c -2.00665,3.8254 -5.92811,7.24874 -10.18958,8.89521 -2.83556,1.09556 -15.30493,1.21314 -124.71122,1.17605 -114.47656,-0.0388 -121.74669,-0.11996 -124.75107,-1.39258 z m 96.86883,-67.54352 v -55.18184 h -46.40806 -46.40816 l 0.1489,54.20127 0.14891,54.20124 1.45013,0.9693 c 1.13141,0.75626 11.29908,0.97179 46.25926,0.9806 l 44.80902,0.0114 z m 148.43265,53.33865 c 1.21884,-1.45767 1.2208,-1.54615 1.2208,-54.99026 v -53.53023 h -46.69418 -46.69421 v 54.6709 c 0,30.069 0.17866,54.907 0.39705,55.19552 0.21837,0.28853 20.68137,0.43223 45.47338,0.31933 43.39502,-0.19759 45.12187,-0.25972 46.29716,-1.66526 z M 225.94425,210.3808 v -24.90847 h -57.00606 c -50.65634,0 -57.1499,0.13289 -58.29548,1.19308 -1.2817,1.18616 -1.28918,1.32163 -1.28918,23.37564 0,21.16068 0.0534,22.25318 1.16011,23.7154 1.14441,1.51207 1.93352,1.53282 58.29548,1.53282 h 57.13513 z m 171.56637,23.71539 c 1.28246,-1.18687 1.28917,-1.31029 1.28917,-23.71539 0,-22.4051 -0.007,-22.52852 -1.28917,-23.71539 -1.14557,-1.06019 -7.6391,-1.19308 -58.29525,-1.19308 h -57.00606 v 24.39753 c 0,13.41864 0.17401,24.62745 0.38669,24.90847 0.21269,0.28102 25.86543,0.51094 57.00608,0.51094 50.30615,0 56.76311,-0.13303 57.90854,-1.19308 z"
         id="path1342" />
      <path
         style="fill:#ffffff;stroke:#000000;stroke-width:4.15416;stroke-dasharray:4.15416, 4.15416;stroke-opacity:0"
         d="M 232.14726,162.41518 C 203.854,159.81406 187.0687,150.85291 183.25477,136.313 c -1.12603,-4.29275 -1.02174,-10.82973 0.25207,-15.80129 5.80872,-22.670893 33.0136,-21.402131 55.6492,2.59533 4.13113,4.37968 10.53604,12.71747 13.67098,17.79664 l 2.35579,3.81678 1.38782,-2.25397 c 10.75029,-17.45954 24.98964,-30.58567 39.1509,-36.09009 6.42095,-2.4958 16.86016,-2.50768 21.27141,-0.0242 7.69502,4.33218 11.50371,11.22677 11.99242,21.70892 0.81009,17.37526 -12.34839,28.2131 -39.89583,32.85976 -13.27663,2.23948 -40.94025,2.96544 -56.94227,1.49431 z m 11.23697,-14.47783 c -0.39709,-1.24962 -7.67579,-10.36936 -11.23697,-14.07922 -4.63011,-4.8234 -10.7826,-9.45664 -16.15663,-12.16704 -5.8997,-2.97552 -14.66434,-3.84934 -18.25379,-1.81987 -4.15521,2.34934 -6.09837,8.25331 -4.23376,12.86361 2.82668,6.98907 17.11309,12.8519 36.87089,15.13102 7.81275,0.90122 13.28348,0.93129 13.01026,0.0715 z m 35.90849,-0.0343 c 20.36511,-2.26074 34.25813,-7.62186 38.26794,-14.76705 2.2259,-3.96638 0.23792,-10.76464 -3.83588,-13.11756 -2.72334,-1.57293 -10.14973,-1.62483 -14.63881,-0.1023 -9.14134,3.10039 -18.99726,10.87132 -27.57695,21.74311 -2.30028,2.91481 -4.30569,5.68788 -4.45647,6.16239 -0.35003,1.10149 2.85885,1.12283 12.24017,0.0814 z"
         id="path1381" />
    </g>
  </g>
</svg>
